<svg xmlns="http://www.w3.org/2000/svg" viewBox="0 0 38 38" fill="none">
  <rect width="38" height="38" rx="9" fill="#0D1117"/>
  <rect x="2" y="4" width="3.5" height="3.5" rx="0.5" fill="#2563EB"/>
  <rect x="2" y="9" width="3.5" height="3.5" rx="0.5" fill="#2563EB" opacity="0.6"/>
  <rect x="2" y="14" width="3.5" height="3.5" rx="0.5" fill="#2563EB"/>
  <rect x="2" y="19" width="3.5" height="3.5" rx="0.5" fill="#2563EB" opacity="0.6"/>
  <rect x="7" y="4" width="3.5" height="3.5" rx="0.5" fill="#2563EB" opacity="0.6"/>
  <rect x="7" y="9" width="3.5" height="3.5" rx="0.5" fill="#2563EB"/>
  <rect x="12" y="2" width="3.5" height="3.5" rx="0.5" fill="#2563EB" opacity="0.6"/>
  <rect x="12" y="6" width="3.5" height="3.5" rx="0.5" fill="#2563EB"/>
  <rect x="17" y="2" width="3.5" height="3.5" rx="0.5" fill="#2563EB" opacity="0.6"/>
  <path d="M14 6 L22 6 Q32 6 32 19 Q32 32 22 32 L14 32 Z" fill="none" stroke="url(#g)" stroke-width="2.5"/>
  <polyline points="17,26 20,20 23,23 27,15" fill="none" stroke="#00D1B2" stroke-width="2" stroke-linecap="round" stroke-linejoin="round"/>
  <circle cx="27" cy="15" r="2" fill="#00D1B2"/>
  <defs>
    <linearGradient id="g" x1="0" y1="0" x2="1" y2="1">
      <stop offset="0%" stop-color="#2563EB"/>
      <stop offset="100%" stop-color="#7C3AED"/>
    </linearGradient>
  </defs>
</svg>